<?xml version="1.0" encoding="UTF-8"?>
<svg version="1.1" xmlns="http://www.w3.org/2000/svg" width="4500" height="5400">
<path d="M0 0 C5.94467508 0.00544056 11.88934081 -0.00092492 17.83401488 -0.0056737 C28.26213343 -0.01241889 38.69023538 -0.01189212 49.1183536 -0.00630661 C60.35071142 -0.00033091 71.58305728 0.00116242 82.81541621 -0.00255503 C83.88917389 -0.0029063 83.88917389 -0.0029063 84.98462364 -0.00326467 C88.64048399 -0.0044799 92.29634432 -0.00576432 95.95220465 -0.00707189 C122.56581616 -0.01643899 149.17942049 -0.01599592 175.7930327 -0.01051014 C202.75041519 -0.00498348 229.70779269 -0.00383582 256.66517549 -0.00798481 C257.51683252 -0.00811383 258.36848956 -0.00824286 259.24595438 -0.0083758 C267.05139864 -0.00955895 274.8568429 -0.01078677 282.66228714 -0.01206822 C302.23163021 -0.01527579 321.80097333 -0.01778812 341.37031656 -0.01982896 C342.26686624 -0.01992277 343.16341592 -0.02001657 344.08713378 -0.02011321 C388.23903619 -0.0246664 432.3909377 -0.02160037 476.54284006 -0.01777332 C478.47597256 -0.01760605 480.40910507 -0.01743878 482.34223758 -0.01727153 C483.77934706 -0.01714716 483.77934706 -0.01714716 485.24548905 -0.01702028 C497.88069245 -0.01592719 510.51589585 -0.01485396 523.15109926 -0.01383369 C524.11698254 -0.01375537 525.08286583 -0.01367705 526.07801831 -0.01359635 C570.86985179 -0.00999133 615.66168482 -0.01085172 660.45351836 -0.0126946 C665.34231538 -0.0128942 670.2311124 -0.01308519 675.11990942 -0.01327715 C689.85590076 -0.01385835 704.5918921 -0.01445223 719.32788344 -0.01507235 C764.26219382 -0.01696126 809.19650419 -0.01816185 854.1308146 -0.01876896 C855.13124781 -0.01878269 856.13168102 -0.01879643 857.16243038 -0.01881058 C921.93747042 -0.01968785 986.71250995 -0.01748758 1051.48754983 -0.0130698 C1052.5213803 -0.01299956 1053.55521077 -0.01292932 1054.62036944 -0.01285696 C1089.24698012 -0.01050436 1123.8735908 -0.00799218 1158.50020147 -0.0054637 C1263.20644708 0.0021769 1367.9126909 0.00636438 1554.9063373 -0.00569436 C1589.52427423 -0.00822084 1624.14221116 -0.01071792 1658.7601481 -0.0130698 C1660.31045971 -0.01317553 1660.31045971 -0.01317553 1661.89209075 -0.0132834 C1726.63368835 -0.01769511 1791.37528559 -0.01965792 1856.11688333 -0.01876896 C1857.11698153 -0.01875544 1858.11707973 -0.01874193 1859.14748394 -0.01872801 C1904.0569877 -0.01811452 1948.96649143 -0.01683782 1993.87599515 -0.01494795 C2008.60542063 -0.01432887 2023.33484611 -0.0137402 2038.0642716 -0.01316185 C2042.95024678 -0.01296987 2047.83622196 -0.01277516 2052.72219715 -0.01257413 C2097.51366455 -0.01073689 2142.30513135 -0.01020162 2187.09659868 -0.01383369 C2188.06186764 -0.01391163 2189.0271366 -0.01398958 2190.02165614 -0.01406988 C2202.64959088 -0.01509341 2215.27752562 -0.01617871 2227.90546035 -0.01727153 C2228.86277379 -0.01735435 2229.82008722 -0.01743718 2230.80641015 -0.01752252 C2232.73778022 -0.01768964 2234.66915028 -0.0178569 2236.60052035 -0.01802431 C2280.6928077 -0.02183624 2324.78509399 -0.02444218 2368.87738138 -0.01982896 C2369.77274607 -0.01973559 2370.66811076 -0.01964221 2371.59060771 -0.01954601 C2391.12823746 -0.01748532 2410.66586709 -0.01484597 2430.20349668 -0.0116384 C2437.99650526 -0.01036669 2445.78951385 -0.00916546 2453.58252244 -0.00798481 C2454.43258208 -0.00785397 2455.28264171 -0.00772314 2456.15846073 -0.00758835 C2483.07904026 -0.00347767 2509.99961462 -0.00546929 2536.92019377 -0.01101835 C2563.44847752 -0.01645929 2589.97675319 -0.01576983 2616.50503605 -0.00628162 C2620.14745125 -0.00497954 2623.78986648 -0.00374661 2627.43228172 -0.00255503 C2628.50179063 -0.00220107 2628.50179063 -0.00220107 2629.59290578 -0.00183995 C2640.78410241 0.00168389 2651.97528658 -0.0014035 2663.16648175 -0.00739774 C2674.14634468 -0.01314037 2685.12618987 -0.01149515 2696.10605128 -0.00272413 C2701.93866272 0.00173464 2707.77122794 0.00321512 2713.60383724 -0.00435716 C2798.23178526 -0.10631193 2880.58057621 11.08038505 3125.70978647 150.58684857 C3127.84230728 152.53927714 3129.99325292 154.42568711 3132.19025522 156.30169232 C3137.53805171 160.96457117 3142.51931508 166.00068348 3147.52399545 171.02459271 C3149.18312217 172.68908009 3150.84752948 174.34815179 3152.51252084 176.00677044 C3158.09401166 181.5848224 3163.504418 187.24559983 3168.62384897 193.25481732 C3170.03708447 194.79962992 3171.45325306 196.34177056 3172.87384897 197.87981732 C3177.42107347 202.91946546 3181.58907326 208.20252596 3185.74494272 213.56341107 C3187.64771907 216.01595041 3189.57586378 218.44391378 3191.53400522 220.85247357 C3214.50146571 249.10374242 3233.68669876 280.06887207 3250.62384897 312.25481732 C3251.40695444 313.74295941 3251.40695444 313.74295941 3252.20588022 315.26116497 C3271.39962335 352.03166011 3286.2301823 391.1043087 3296.62384897 431.25481732 C3296.78929208 431.89231915 3296.9547352 432.52982098 3297.12519174 433.18664105 C3312.8474937 494.00633781 3315.79212334 555.21796097 3315.75125763 617.7683069 C3315.7485436 623.65705069 3315.75171795 629.54579209 3315.75409447 635.43453563 C3315.75747101 645.77025165 3315.7572008 656.10596281 3315.75441093 666.44167889 C3315.75142544 677.57717861 3315.75067487 688.71267531 3315.75253514 699.8481753 C3315.75265223 700.55725789 3315.75276932 701.26634049 3315.75288996 701.99691044 C3315.75349756 705.61812886 3315.75413977 709.23934727 3315.75479357 712.86056567 C3315.7594798 739.23679481 3315.75925432 765.61302214 3315.75651269 791.98925145 C3315.75375027 818.70965106 3315.75317481 845.43004942 3315.75525003 872.15044911 C3315.7553468 873.41626663 3315.7553468 873.41626663 3315.75544553 874.70765622 C3315.75603709 882.44170096 3315.756651 890.1757457 3315.75729174 897.90979044 C3315.75889561 917.30086903 3315.76015173 936.69194762 3315.76117211 956.08302624 C3315.76124246 957.41565926 3315.76124246 957.41565926 3315.76131423 958.77521415 C3315.7635913 1002.53616126 3315.7620576 1046.29710814 3315.76014428 1090.05805523 C3315.76006065 1091.9742781 3315.75997702 1093.89050096 3315.75989339 1095.80672382 C3315.75985193 1096.75641494 3315.75981048 1097.70610605 3315.75976777 1098.68457568 C3315.75922123 1111.20907102 3315.75868461 1123.73356637 3315.75817447 1136.25806172 C3315.75811573 1137.69417105 3315.75811573 1137.69417105 3315.7580558 1139.15929269 C3315.75625362 1183.54973499 3315.75668337 1227.94017717 3315.75760493 1272.33061948 C3315.75770472 1277.17499822 3315.75780022 1282.01937695 3315.7578962 1286.86375568 C3315.7581868 1301.46571263 3315.75848374 1316.06766959 3315.7587938 1330.66962654 C3315.75973828 1375.1957321 3315.76033856 1419.72183766 3315.7606421 1464.24794323 C3315.76064897 1465.23930493 3315.76065584 1466.23066663 3315.76066292 1467.2520696 C3315.76110158 1531.44381452 3315.76000127 1595.63555931 3315.75779252 1659.8273042 C3315.75775741 1660.85189044 3315.75772229 1661.87647668 3315.75768611 1662.93211099 C3315.75650979 1697.24953003 3315.75525371 1731.56694907 3315.75398947 1765.88436811 C3315.75016914 1869.6571182 3315.74807543 1973.42986784 3315.75410481 2158.75591909 C3315.75536804 2193.06472287 3315.75661657 2227.37352666 3315.75779252 2261.68233044 C3315.75782777 2262.70662946 3315.75786301 2263.73092847 3315.75789933 2264.78626685 C3315.76010504 2328.94474172 3315.76108661 2393.1032165 3315.7606421 2457.2616914 C3315.76063535 2458.2527219 3315.76062859 2459.2437524 3315.76062163 2460.26481413 C3315.76031489 2504.7663012 3315.75967655 2549.26778825 3315.7587316 2593.76927531 C3315.75842206 2608.3647434 3315.75812772 2622.96021149 3315.75783855 2637.55567958 C3315.75774256 2642.39726265 3315.75764521 2647.23884573 3315.75754469 2652.0804288 C3315.75662595 2696.47081023 3315.75635876 2740.86119151 3315.75817447 2785.25157292 C3315.75823293 2786.68676962 3315.75823293 2786.68676962 3315.75829257 2788.15096019 C3315.75880434 2800.66827707 3315.75934698 2813.18559394 3315.75989339 2825.70291081 C3315.7599348 2826.65184994 3315.75997622 2827.60078906 3315.76001888 2828.57848391 C3315.76010244 2830.49296153 3315.76018608 2832.40743915 3315.76026978 2834.32191677 C3315.76217552 2878.02348073 3315.76347919 2921.72504442 3315.76117211 2965.42660839 C3315.76112542 2966.31385731 3315.76107873 2967.20110622 3315.76103063 2968.11524146 C3315.76000034 2987.47480928 3315.75868069 3006.83437707 3315.75707683 3026.19394485 C3315.75644096 3033.91569174 3315.75584035 3041.63743863 3315.75525003 3049.35918553 C3315.75518461 3050.20147767 3315.7551192 3051.04376982 3315.7550518 3051.91158596 C3315.7529957 3078.59607261 3315.75399313 3105.28055795 3315.7567668 3131.96504449 C3315.75948594 3158.25590713 3315.75914515 3184.54676773 3315.75439843 3210.83763014 C3315.75374737 3214.4455732 3315.75313092 3218.05351627 3315.75253514 3221.66145934 C3315.75235816 3222.72086737 3315.75235816 3222.72086737 3315.7521776 3223.80167759 C3315.75041409 3234.8974974 3315.75196146 3245.99331408 3315.7549565 3257.08913352 C3315.75782426 3267.96923805 3315.75701057 3278.8493373 3315.75261969 3289.72944134 C3315.75038673 3295.51160938 3315.74965857 3301.29376576 3315.75343621 3307.07593327 C3315.79048646 3368.0357778 3315.79048646 3368.0357778 3313.43634897 3393.69231732 C3313.37482644 3394.37151226 3313.31330392 3395.05070721 3313.24991708 3395.75048382 C3307.63806018 3456.68094925 3292.56884576 3517.32777829 3267.62384897 3573.25481732 C3267.16542611 3574.28832318 3266.70700326 3575.32182904 3266.23468881 3576.38665326 C3245.58891244 3622.68070206 3219.4902442 3666.44400431 3187.07697397 3705.4974931 C3184.98768975 3708.02415099 3182.93413628 3710.57949639 3180.87384897 3713.12981732 C3177.28980016 3717.50813336 3173.55984645 3721.72955619 3169.74884897 3725.91106732 C3167.79890172 3728.06174443 3165.89358768 3730.24306703 3163.99884897 3732.44231732 C3161.25340218 3735.59894853 3158.35733542 3738.54335741 3155.37384897 3741.47356732 C3153.54142409 3743.33871406 3151.83031762 3745.27409477 3150.12384897 3747.25481732 C3145.01324102 3753.16217929 3139.49744105 3758.4218987 3133.58088022 3763.51262982 C3131.73848216 3765.1527686 3130.02396261 3766.85589293 3128.31134897 3768.62981732 C3124.6088902 3772.39959351 3120.53908354 3775.64297789 3116.42463022 3778.95012982 C3113.86195295 3781.05888796 3111.42811029 3783.24523183 3108.99884897 3785.50481732 C3102.60582636 3791.32125402 3095.68933582 3796.44166036 3088.78351694 3801.62591107 C3086.78326548 3803.13457914 3084.79709926 3804.65959433 3082.81525522 3806.19231732 C3059.55213516 3824.08211278 3034.40061922 3839.2978245 3008.62384897 3853.25481732 C3007.83494272 3853.68616986 3007.04603647 3854.1175224 3006.23322397 3854.56194622 C2945.45857214 3887.69526059 2877.68907152 3907.75704586 2809.18634897 3916.50481732 C2808.00492319 3916.65612103 2806.8234974 3916.80742474 2805.60627084 3916.96331341 C2802.40836381 3917.34680226 2799.20909653 3917.69048024 2796.00460017 3918.01350589 C2794.42586921 3918.17352506 2792.84759518 3918.33812289 2791.26983477 3918.5074441 C2768.85250314 3920.84522776 2746.38759747 3920.53954572 2723.87794347 3920.51220584 C2717.88341332 3920.50717635 2711.8888935 3920.51387779 2705.894365 3920.51900951 C2695.36588477 3920.52642874 2684.83742203 3920.52653191 2674.30894191 3920.52162002 C2662.96238562 3920.51636639 2651.61584142 3920.51555891 2640.26928464 3920.51997695 C2639.54747796 3920.52025523 2638.82567129 3920.52053351 2638.08199168 3920.52082023 C2634.39595889 3920.52226042 2630.70992612 3920.52376948 2627.02389337 3920.52530137 C2600.15708221 3920.53631398 2573.29027757 3920.5374749 2546.42346483 3920.53360302 C2519.20148577 3920.52970857 2491.97951191 3920.5301681 2464.75753312 3920.53591282 C2463.89816844 3920.53609207 2463.03880376 3920.53627133 2462.15339773 3920.53645601 C2454.27753049 3920.53809893 2446.40166325 3920.53978453 2438.52579603 3920.54152164 C2418.77797583 3920.54587057 2399.03015552 3920.54950619 2379.28233509 3920.55265398 C2377.92509966 3920.55287066 2377.92509966 3920.55287066 2376.54044533 3920.55309171 C2331.95920848 3920.56013886 2287.37797211 3920.55950196 2242.79673486 3920.55797322 C2241.8306886 3920.55794014 2240.86464234 3920.55790707 2239.86932194 3920.557873 C2235.95824055 3920.55773868 2232.04715916 3920.55760353 2228.13607777 3920.55746762 C2217.33187082 3920.55709244 2206.52766387 3920.55673477 2195.72345691 3920.55639989 C2194.74796014 3920.55636918 2193.77246337 3920.55633846 2192.76740609 3920.55630681 C2148.53068447 3920.55493216 2104.29396339 3920.55746415 2060.05724192 3920.56092596 C2054.13747366 3920.56138919 2048.2177054 3920.56184106 2042.29793713 3920.56229008 C2041.31936454 3920.56236436 2040.34079194 3920.56243864 2039.33256562 3920.56251517 C2037.3542452 3920.56266532 2035.37592477 3920.56281544 2033.39760435 3920.56296553 C2028.44393752 3920.56334161 2023.49027069 3920.56371907 2018.53660386 3920.56409662 C2017.0633359 3920.56420882 2017.0633359 3920.56420882 2015.56030496 3920.56432329 C2010.59351392 3920.56470177 2005.62672288 3920.56508169 2000.65993184 3920.56546424 C1954.30842608 3920.56903223 1907.95692029 3920.57189664 1861.60541444 3920.57405693 C1860.59552312 3920.57410417 1859.5856318 3920.57415141 1858.54513772 3920.57420008 C1794.20123622 3920.57719444 1729.85733514 3920.57707013 1665.51343362 3920.57463616 C1662.34997822 3920.57451657 1659.18652281 3920.57439819 1656.0230674 3920.57428007 C1632.73772233 3920.57340866 1609.45237726 3920.57247806 1586.16703219 3920.57152944 C1584.04347957 3920.57144305 1581.91992694 3920.57135668 1579.79637432 3920.57127032 C1577.67195663 3920.57118388 1575.54753893 3920.57109744 1573.42312123 3920.57101099 C1571.84528104 3920.5709468 1571.84528104 3920.5709468 1570.23556529 3920.57088132 C1564.92056495 3920.57066493 1559.6055646 3920.57044749 1554.29056426 3920.57022809 C1453.9080263 3920.56608969 1353.52549043 3920.56501136 1253.14295297 3920.57738812 C1252.08616091 3920.5775184 1251.02936886 3920.57764868 1249.9405528 3920.57778291 C1217.98366619 3920.58173484 1186.02677964 3920.5860944 1154.06989311 3920.59055407 C1119.12534446 3920.59543025 1084.1807958 3920.60026424 1049.23624711 3920.60483582 C1048.19295898 3920.60497259 1047.14967084 3920.60510936 1046.07476791 3920.60525028 C980.71991688 3920.61380697 915.36506645 3920.61870884 850.01021486 3920.61954338 C848.49578193 3920.61956329 848.49578193 3920.61956329 846.9507544 3920.6195836 C802.60751496 3920.62015897 758.26427555 3920.61987405 713.92103611 3920.61866489 C697.0682104 3920.61820569 680.21538469 3920.61781345 663.36255897 3920.61745413 C659.41751041 3920.61736986 655.47246184 3920.61728059 651.52741328 3920.61718731 C606.30744017 3920.61613227 561.08746861 3920.61720635 515.86749606 3920.62486226 C514.89300981 3920.62502691 513.91852356 3920.62519155 512.91450742 3920.62536118 C497.23986087 3920.6280193 481.56521434 3920.63083845 465.89056782 3920.63366521 C421.37324279 3920.64168347 376.85592003 3920.6480248 332.33859425 3920.64359636 C331.43449788 3920.64350696 330.53040152 3920.64341756 329.59890829 3920.64332545 C309.87012165 3920.64134151 290.14133523 3920.63850577 270.41254884 3920.63483493 C262.54309105 3920.63338281 254.67363324 3920.63203855 246.80417543 3920.63072712 C245.94577661 3920.63058106 245.0873778 3920.63043499 244.2029669 3920.63028449 C217.02259945 3920.62570997 189.84224406 3920.63030829 162.66187833 3920.64026171 C135.8751192 3920.65003125 109.08837752 3920.65060827 82.30161902 3920.63800641 C78.62283773 3920.63627692 74.9440564 3920.63465154 71.26527504 3920.63308856 C70.18509608 3920.63262356 70.18509608 3920.63262356 69.08309532 3920.63214915 C57.78484464 3920.62755593 46.48662244 3920.63288537 35.18837592 3920.64259052 C24.10060578 3920.65190738 13.01287149 3920.65012109 1.92510203 3920.63765984 C-3.96372116 3920.6313425 -9.85244095 3920.62947592 -15.74125817 3920.64122704 C-48.51357781 3920.70224363 -80.9438372 3919.69527422 -113.37615103 3914.56731732 C-114.18592398 3914.44265088 -114.99569693 3914.31798443 -115.83000846 3914.18954022 C-214.29884386 3898.95217748 -307.28213086 3857.93066724 -401.70671744 3782.68157513 C-403.44704279 3781.19423068 -405.19771034 3779.71978808 -406.95036978 3778.24700482 C-413.28888624 3772.9002174 -419.3395683 3767.43765413 -425.13786978 3761.49700482 C-427.81332775 3758.81687764 -430.63865087 3756.36229738 -433.50896353 3753.89544232 C-438.64284961 3749.38449639 -443.17182319 3744.39376928 -447.62615103 3739.22356732 C-449.31413389 3737.3245866 -451.06384837 3735.53475743 -452.87615103 3733.75481732 C-456.58810808 3730.09213404 -459.99227758 3726.22029402 -463.37615103 3722.25481732 C-464.20115103 3721.29575482 -465.02615103 3720.33669232 -465.87615103 3719.34856732 C-524.98634091 3650.34219792 -568.29627844 3566.99345589 -603.06365103 3394.44231732 C-603.18321158 3393.18862347 -603.30277213 3391.93492962 -603.42595572 3390.64324505 C-605.94610235 3361.41137031 -605.52273852 3331.95880488 -605.50355969 3302.64779969 C-605.50084393 3296.76310663 -605.50402061 3290.87841597 -605.50639654 3284.99372317 C-605.50977199 3274.66670084 -605.50950367 3264.33968338 -605.506713 3254.01266099 C-605.50372685 3242.88726752 -605.50297737 3231.76187707 -605.50483721 3220.63648332 C-605.5049543 3219.92788264 -605.50507139 3219.21928195 -605.50519203 3218.48920852 C-605.50579963 3214.87041261 -605.50644184 3211.2516167 -605.50709564 3207.63282079 C-605.51178112 3181.27834225 -605.51155674 3154.92386551 -605.50881476 3128.56938679 C-605.50605209 3101.87198217 -605.50547708 3075.17457881 -605.5075521 3048.47717411 C-605.50761661 3047.63394112 -605.50768112 3046.79070812 -605.50774759 3045.92192261 C-605.50833916 3038.19376253 -605.50895307 3030.46560246 -605.5095938 3022.73744239 C-605.51119765 3003.36132436 -605.51245379 2983.98520632 -605.51347417 2964.60908825 C-605.51352108 2963.72136258 -605.51356798 2962.83363691 -605.5136163 2961.91901046 C-605.51589324 2918.19494238 -605.51435972 2874.47087452 -605.51244635 2830.74680645 C-605.51236272 2828.83225606 -605.51227908 2826.91770567 -605.51219546 2825.00315529 C-605.512154 2824.05429269 -605.51211255 2823.10543009 -605.51206983 2822.12781408 C-605.51152329 2809.61419897 -605.51098668 2797.10058385 -605.51047654 2784.58696873 C-605.51043738 2783.63039031 -605.51039822 2782.67381189 -605.51035787 2781.68824624 C-605.5085556 2737.33389143 -605.50898547 2692.97953672 -605.50990699 2648.62518189 C-605.51000679 2643.78457274 -605.51010229 2638.94396358 -605.51019827 2634.10335442 C-605.51048887 2619.51271895 -605.51078581 2604.92208348 -605.51109587 2590.33144801 C-605.51204034 2545.8400053 -605.51264062 2501.34856259 -605.51294417 2456.85711987 C-605.51295104 2455.86653462 -605.51295791 2454.87594936 -605.51296498 2453.85534637 C-605.51340364 2389.71500222 -605.51230338 2325.5746582 -605.51009459 2261.43431408 C-605.51005947 2260.41056638 -605.51002435 2259.38681868 -605.50998817 2258.33204832 C-605.50881186 2224.04283451 -605.50755578 2189.7536207 -605.50629154 2155.46440689 C-605.50247122 2051.77735132 -605.5003775 1948.0902962 -605.50640687 1762.91715322 C-605.50767011 1728.63654233 -605.50891864 1694.35593144 -605.51009459 1660.07532055 C-605.51012984 1659.05185973 -605.51016508 1658.0283989 -605.51020139 1656.97392411 C-605.51240714 1592.86678764 -605.51338867 1528.75965127 -605.51294417 1464.65251477 C-605.51293741 1463.66226067 -605.51293066 1462.67200657 -605.5129237 1461.65174477 C-605.51261696 1417.18489107 -605.51197862 1372.71803738 -605.51103367 1328.2511837 C-605.51072413 1313.66703685 -605.51042979 1299.08289 -605.51014062 1284.49874315 C-605.51004463 1279.66092763 -605.50994727 1274.8231121 -605.50984676 1269.98529658 C-605.50892805 1225.6310863 -605.50866074 1181.27687617 -605.51047654 1136.92266591 C-605.51051551 1135.96669552 -605.51055448 1135.01072514 -605.51059463 1134.02578595 C-605.5111064 1121.51935042 -605.51164905 1109.01291488 -605.51219546 1096.50647935 C-605.51223687 1095.55836834 -605.51227828 1094.61025733 -605.51232095 1093.63341569 C-605.51240451 1091.72060951 -605.51248814 1089.80780334 -605.51257185 1087.89499716 C-605.51447765 1044.23018015 -605.51578113 1000.56536341 -605.51347417 956.90054638 C-605.51342749 956.01399321 -605.5133808 955.12744004 -605.5133327 954.21402162 C-605.51230239 934.86936614 -605.51098274 915.52471069 -605.50937889 896.18005525 C-605.50874303 888.46419034 -605.50814242 880.74832543 -605.5075521 873.03246052 C-605.50748668 872.19081157 -605.50742126 871.34916263 -605.50735387 870.48200916 C-605.50529798 843.82064367 -605.50629496 817.15927948 -605.50906887 790.49791408 C-605.51178838 764.2285101 -605.5114465 737.95910815 -605.5067005 711.6897044 C-605.50604945 708.08418671 -605.50543299 704.47866901 -605.50483721 700.87315131 C-605.50471922 700.16735796 -605.50460123 699.46156461 -605.50447967 698.73438359 C-605.5027166 687.64894635 -605.50426295 676.56351225 -605.50725856 665.47807539 C-605.51012731 654.60643873 -605.50931115 643.73480735 -605.50492176 632.86317118 C-605.50268979 627.08621275 -605.50195829 621.309266 -605.50573827 615.53230811 C-605.54369804 553.1514819 -605.54369804 553.1514819 -603.12615103 527.44231732 C-603.06334952 526.7585603 -603.00054801 526.07480328 -602.93584342 525.37032635 C-596.16172582 452.29344389 -575.38899337 381.72405188 -542.37615103 316.25481732 C-541.85134146 315.20938763 -541.32653189 314.16395794 -540.785819 313.08684857 C-522.74709286 277.31853346 -500.34515607 243.82138678 -474.79997916 212.98284466 C-473.51551227 211.42395291 -472.24936167 209.85001293 -470.98552603 208.27434857 C-466.46872383 202.64459331 -461.73488405 197.28193189 -456.79973502 192.0197099 C-454.2293503 189.27834615 -451.72654169 186.50359893 -449.28630728 183.64544232 C-444.64036599 178.30986912 -439.61584339 173.344965 -434.60637564 168.35467083 C-432.94188826 166.69554412 -431.28281657 165.0311368 -429.62419791 163.36614544 C-424.04644611 157.78490276 -418.38966582 152.3689475 -412.37615103 147.25481732 C-410.76846731 145.80036215 -409.16375389 144.34260837 -407.56365103 142.87981732 C-341.02647001 82.98628825 -257.39497806 40.20973186 0 0 Z " fill="#F7A42C" transform="translate(860.3761510336772,603.7451826818287)"/>
<path d="M0 0 C1.61829712 0.00090637 1.61829712 0.00090637 3.26928711 0.00183105 C53.54609567 0.07792368 102.49569504 5.12013903 150.6875 20.1875 C152.31051025 20.68757568 152.31051025 20.68757568 153.96630859 21.19775391 C183.96085276 30.56170539 212.00879298 44.65472014 236.6875 64.1875 C237.92693359 65.12142578 237.92693359 65.12142578 239.19140625 66.07421875 C271.66641326 91.31052191 295.27075149 127.55954105 308.6875 166.1875 C308.93661133 166.87537598 309.18572266 167.56325195 309.44238281 168.27197266 C313.41461031 179.30507925 316.01150383 190.60893757 318.4375 202.0625 C318.58638672 202.76424347 318.73527344 203.46598694 318.88867188 204.18899536 C324.560584 231.12073087 326.11033229 257.66999229 326.0625 285.125 C326.06147844 286.21661753 326.06147844 286.21661753 326.06043625 287.33028793 C326.03255188 311.15852377 325.35147996 334.60286812 321.6875 358.1875 C321.53478638 359.17220276 321.38207275 360.15690552 321.22473145 361.17144775 C316.80332156 389.43840156 311.63401597 417.58047224 306.17767334 445.66418457 C304.444313 454.58718086 302.71934179 463.51179259 301 472.4375 C300.80443512 473.45161957 300.60887024 474.46573914 300.40737915 475.5105896 C298.05077174 487.7523109 295.80204159 499.98648635 293.9284668 512.31274414 C293.05365114 518.04306335 292.00906354 523.7037562 290.8125 529.375 C287.73947063 544.06034145 285.65414643 558.94043042 283.37060547 573.76416016 C282.80862599 577.41049214 282.23712688 581.05522456 281.66015625 584.69921875 C277.00107743 614.27091299 272.80532297 643.9318021 269 673.625 C268.86430099 674.67969986 268.86430099 674.67969986 268.7258606 675.75570679 C265.23709541 702.97917747 262.12344675 730.25478598 259.375 757.5625 C259.30282131 758.27850624 259.23064262 758.99451248 259.1562767 759.73221588 C250.28746985 847.9325524 244.87841167 936.5256453 240.6875 1082.1875 C241.68918213 1082.15197021 242.69086426 1082.11644043 243.72290039 1082.07983398 C247.80607763 1082.19072019 251.17562329 1082.87546371 255.12109375 1083.91015625 C255.82288757 1084.09096237 256.5246814 1084.27176849 257.2477417 1084.45805359 C258.7557181 1084.84674063 260.26283049 1085.23879265 261.76913452 1085.63391113 C265.81418661 1086.69174384 269.86815751 1087.71424876 273.921875 1088.73828125 C274.74588303 1088.94677704 275.56989105 1089.15527283 276.41886902 1089.37008667 C300.30286955 1095.39062051 324.26639131 1099.9992602 348.6875 1103.1875 C349.40121765 1103.28095703 350.1149353 1103.37441406 350.85028076 1103.47070312 C425.99549486 1113.23064136 501.7500926 1110.46676184 576.6875 1100.1875 C577.574375 1100.06634827 578.46125 1099.94519653 579.375 1099.82037354 C588.5726977 1098.56282484 597.76730532 1097.28451601 606.95828247 1095.97875977 C614.25132028 1094.94269321 621.54570316 1093.9301011 628.8515625 1092.98828125 C629.55628189 1092.89695419 630.26100128 1092.80562714 630.98707581 1092.71153259 C634.21794829 1092.29350539 637.4493968 1091.88169411 640.68237305 1091.48022461 C641.79394775 1091.33721924 642.90552246 1091.19421387 644.05078125 1091.046875 C645.00251221 1090.92795898 645.95424316 1090.80904297 646.93481445 1090.68652344 C649.97905297 1090.13464552 652.77731958 1089.22759768 655.6875 1088.1875 C657.60582076 998.46214259 649.345184 908.95990098 641.35148621 812.32583618 C640.2107794 798.58951415 639.10068834 784.85141989 638.03125 771.109375 C637.01632229 758.09390616 635.9064146 745.09060103 634.6690979 732.09417725 C634.12348668 726.35385121 633.59011 720.61237749 633.0546875 714.87109375 C632.94189957 713.66370544 632.82911163 712.45631714 632.71290588 711.21234131 C628.5695201 666.80645948 624.73099205 622.3727931 620.89223862 577.93976593 C620.56866127 574.1962801 620.24455761 570.45284019 619.9203186 566.70941162 C619.29638149 559.50306594 618.67472759 552.29652574 618.0546875 545.08984375 C617.95360624 543.91599625 617.85252499 542.74214874 617.74838066 541.5327301 C616.3923016 525.75811829 615.11113686 509.97907548 613.879673 494.19429207 C612.35346208 474.66298782 610.55448585 455.18341647 608.44431114 435.70695305 C603.64002271 391.35403269 599.36005418 347.03194114 599.3125 302.375 C599.31032471 301.29274139 599.30814941 300.21048279 599.3059082 299.09542847 C599.31006519 281.08200817 600.35818256 263.20885679 603.4375 245.4375 C603.60596436 244.45418701 603.77442871 243.47087402 603.94799805 242.45776367 C615.10488572 179.62634682 645.32369063 119.64579064 696.6875 80.1875 C697.22681152 79.77177734 697.76612305 79.35605469 698.32177734 78.92773438 C755.02189372 35.497858 824.32324556 15.86094294 894.6875 10.1875 C895.92935059 10.08163574 895.92935059 10.08163574 897.19628906 9.97363281 C962.20101297 4.63889863 1030.68223609 13.15399086 1088.6875 44.1875 C1089.49590332 44.6191748 1090.30430664 45.05084961 1091.13720703 45.49560547 C1102.04602162 51.41581614 1111.98700357 58.46542413 1121.6875 66.1875 C1122.51862305 66.84129639 1123.34974609 67.49509277 1124.20605469 68.16870117 C1131.28514998 73.8300846 1137.80908921 79.94822073 1144.1875 86.375 C1144.69084869 86.88017151 1145.19419739 87.38534302 1145.71279907 87.90582275 C1152.81247029 95.04873055 1159.61960213 102.25797659 1165.46728516 110.47998047 C1166.79842057 112.34271778 1168.16936947 114.17228817 1169.54296875 116.00390625 C1208.71657309 168.98810388 1227.34764267 235.92994242 1237.6875 300.1875 C1237.81511719 300.97892395 1237.94273438 301.7703479 1238.07421875 302.58575439 C1239.03254673 308.55343066 1239.96092995 314.52539801 1240.875 320.5 C1240.99587982 321.28193726 1241.11675964 322.06387451 1241.24130249 322.86950684 C1245.0058225 347.38919051 1247.19442159 372.06351388 1248.75 396.8125 C1248.79177494 397.47029072 1248.83354988 398.12808144 1248.87659073 398.80580521 C1250.69585466 427.50683467 1251.67212515 456.21638678 1252.28515625 484.96655273 C1252.30252248 485.77649988 1252.31988871 486.58644702 1252.33778119 487.42093801 C1252.69240646 504.12403343 1252.90909878 520.82754012 1253.09376335 537.53324318 C1253.41994196 566.91589393 1253.84518964 596.29605326 1254.37109375 625.67578125 C1254.39359975 626.93569378 1254.39359975 626.93569378 1254.41656041 628.22105908 C1254.57079315 636.85170589 1254.72647064 645.48232618 1254.88306302 654.11293048 C1255.24009682 673.79777663 1255.58495446 693.48283585 1255.92578125 713.16796875 C1255.94223725 714.11818405 1255.95869326 715.06839935 1255.97564793 716.04740906 C1256.99697857 775.0858688 1257.83357696 834.12661425 1258.54247761 893.16961956 C1258.63384715 900.77907839 1258.72736481 908.38850531 1258.82373047 915.99790287 C1259.64893255 981.31213678 1259.78752395 1046.62459142 1259.80889618 1111.94323826 C1259.81103125 1118.45227562 1259.81426668 1124.96131089 1259.81857437 1131.47034717 C1259.85869003 1193.38198258 1259.49611361 1255.28100306 1258.6875 1317.1875 C1258.67808254 1317.91171379 1258.66866508 1318.63592757 1258.65896225 1319.38208723 C1258.447974 1335.56825948 1258.18886493 1351.75300843 1257.875 1367.9375 C1257.8457053 1369.47713158 1257.8457053 1369.47713158 1257.81581879 1371.04786682 C1256.14478691 1458.86457848 1253.4579838 1546.69087071 1246.16928101 1698.27778625 C1245.80626535 1704.93573375 1245.46081305 1711.59433859 1245.12890625 1718.25390625 C1244.42852923 1732.24130436 1243.69250734 1746.2106518 1242.50097656 1760.16674805 C1241.73818129 1769.19723666 1241.1419035 1778.23512933 1240.55563354 1787.27838135 C1239.08124106 1810.0033055 1237.40640232 1832.71137754 1235.69423294 1855.41932297 C1235.42487336 1858.99177406 1235.15572921 1862.56424135 1234.88671875 1866.13671875 C1234.80811363 1867.18008896 1234.80811363 1867.18008896 1234.72792053 1868.24453735 C1234.0530885 1877.20968588 1233.39618477 1886.17587592 1232.76953125 1895.14453125 C1232.70180511 1896.11114182 1232.63407898 1897.07775238 1232.56430054 1898.07365417 C1232.26337171 1902.37911682 1231.9662375 1906.68478535 1231.67578125 1910.9909668 C1231.08773251 1919.5529016 1230.33439127 1928.07873507 1229.37031555 1936.6072998 C1228.812463 1941.61493416 1228.47217255 1946.59075073 1228.25 1951.625 C1223.61887888 2045.42608454 1200.58381905 2135.71975452 1134.6875 2205.1875 C1133.90503906 2206.0125 1133.12257813 2206.8375 1132.31640625 2207.6875 C1126.80855791 2213.34261702 1120.85431328 2218.27135421 1114.6875 2223.1875 C1113.54023808 2224.13499161 1112.39446914 2225.08429314 1111.25 2226.03515625 C1069.06345517 2260.84472597 1015.71551333 2281.52645622 961.99169922 2289.68359375 C959.91011358 2290.00104556 957.83056047 2290.33243933 955.75439453 2290.68359375 C939.58020081 2293.40128504 923.42014878 2293.47325757 907.0625 2293.5 C905.98870087 2293.50367584 904.91490173 2293.50735168 903.80856323 2293.51113892 C824.51767315 2293.65265547 742.51077104 2272.61669784 682.8984375 2218.17578125 C681.13669917 2216.5914618 679.35661213 2215.09359002 677.5 2213.625 C674.55016042 2211.06847236 672.10244726 2208.35740516 669.58203125 2205.38671875 C668.32082324 2203.92267729 667.02595457 2202.48696368 665.69921875 2201.08203125 C643.63158436 2177.64273403 627.12860287 2146.83614082 617.6875 2116.1875 C617.40422852 2115.27355469 617.12095703 2114.35960938 616.82910156 2113.41796875 C601.84159039 2064.60058976 600.28983323 2015.97834674 600.36944199 1965.2855835 C600.37508177 1961.63456172 600.37790359 1957.9835446 600.38052368 1954.33251953 C600.41557787 1920.68962811 600.9324592 1887.19682356 602.91981506 1853.60839844 C603.69158871 1840.54542332 604.33040634 1827.47652626 604.96484375 1814.40625 C605.07673118 1812.10587539 605.18862389 1809.80550105 605.30052185 1807.50512695 C605.46948902 1804.02944075 605.63836403 1800.55375015 605.80701733 1797.07804871 C606.3470728 1785.95384416 606.89538308 1774.83005977 607.4497242 1763.70655823 C607.54918881 1761.70839498 607.64834557 1759.71021638 607.74715996 1757.71202087 C608.20537525 1748.4468003 608.67688318 1739.1837023 609.23779297 1729.92407227 C609.57985237 1724.26117128 609.85460589 1718.6058702 609.96875 1712.93359375 C610.00646418 1711.3847645 610.04422586 1709.8359364 610.08203125 1708.28710938 C610.13585357 1705.93744431 610.18831521 1703.58775573 610.23974609 1701.23803711 C610.29185373 1698.9072958 610.34884543 1696.57670974 610.40625 1694.24609375 C610.41982544 1693.5532579 610.43340088 1692.86042206 610.4473877 1692.14659119 C610.56598679 1687.42695447 611.04315977 1682.85733626 611.6875 1678.1875 C611.13626465 1678.36812988 610.5850293 1678.54875977 610.01708984 1678.73486328 C596.92706718 1683.00645798 583.79680074 1686.96897419 570.47509766 1690.45361328 C567.71194639 1691.18106404 564.95580659 1691.93170812 562.19921875 1692.68359375 C544.58496796 1697.38611672 526.68246757 1700.36918613 508.6875 1703.1875 C506.86847168 1703.47463867 506.86847168 1703.47463867 505.01269531 1703.76757812 C469.17814949 1709.1792036 429.47957921 1708.80929255 393.6875 1703.1875 C393.01795288 1703.08332764 392.34840576 1702.97915527 391.65856934 1702.87182617 C368.1576284 1699.19607578 345.01630139 1694.59898387 322.41357422 1687.08691406 C319.32457358 1686.06775963 316.22698427 1685.07714403 313.12890625 1684.0859375 C299.94059775 1679.82612403 287.18809991 1675.18451983 274.6875 1669.1875 C274.94934906 1673.25062646 275.22397133 1677.31281424 275.5 1681.375 C275.57025391 1682.46748047 275.64050781 1683.55996094 275.71289062 1684.68554688 C277.47138248 1710.21884865 280.81296101 1735.58538597 284.17068863 1760.94594193 C285.18400863 1768.61268487 286.18504328 1776.28104938 287.1875 1783.94921875 C287.29714899 1784.78704329 287.40679798 1785.62486782 287.51976967 1786.48808098 C289.65569252 1802.81678281 291.6893524 1819.15666484 293.62231445 1835.51074219 C294.85632785 1845.87053187 296.2365846 1856.20493577 297.69217491 1866.53559875 C300.77263976 1888.41005628 303.51822511 1910.3219336 306.1875 1932.25 C306.30692081 1933.23086075 306.42634163 1934.2117215 306.54938126 1935.2223053 C321.04856713 2054.43551058 321.04856713 2054.43551058 313.6875 2087.1875 C313.54828125 2087.85152832 313.4090625 2088.51555664 313.265625 2089.19970703 C305.84053114 2124.25405638 289.74311016 2155.40022717 265.23046875 2181.43359375 C263.44110192 2183.37138732 261.7485855 2185.29977184 260.08203125 2187.3359375 C258.19058025 2189.58839954 256.4169219 2191.48505826 254.1875 2193.375 C253.14916016 2194.25671875 253.14916016 2194.25671875 252.08984375 2195.15625 C251.29707031 2195.8265625 250.50429687 2196.496875 249.6875 2197.1875 C248.76066406 2198.0021875 247.83382812 2198.816875 246.87890625 2199.65625 C215.51315163 2227.05996184 177.10068089 2245.49214439 137.6875 2258.1875 C136.67349121 2258.51492187 135.65948242 2258.84234375 134.61474609 2259.1796875 C119.04996193 2264.14176401 103.52967153 2267.89917976 87.43896484 2270.69677734 C85.11198624 2271.11179305 82.80067687 2271.56236014 80.48828125 2272.05078125 C76.56803609 2272.86315937 72.64045722 2273.5594037 68.6875 2274.1875 C67.43936523 2274.39270264 67.43936523 2274.39270264 66.16601562 2274.60205078 C48.63638742 2277.33758565 31.14112189 2277.48260644 13.4375 2277.5 C12.29657898 2277.50349457 11.15565796 2277.50698914 9.98016357 2277.5105896 C-42.33424594 2277.59932175 -93.17181112 2268.02721789 -142.5625 2251.0625 C-143.75166016 2250.65491455 -144.94082031 2250.2473291 -146.16601562 2249.82739258 C-153.67215033 2247.21300881 -161.006503 2244.3143153 -168.3125 2241.1875 C-170.04656838 2240.46150678 -171.78093258 2239.73621963 -173.515625 2239.01171875 C-184.32645381 2234.4519706 -194.93610123 2229.66688676 -205.3125 2224.1875 C-206.3648584 2223.63739258 -206.3648584 2223.63739258 -207.43847656 2223.07617188 C-227.45237076 2212.54816879 -246.41142468 2199.59565366 -263.05859375 2184.2578125 C-265.06553483 2182.41434843 -267.11162242 2180.63970907 -269.1875 2178.875 C-277.5597669 2171.55138067 -285.227817 2163.63966622 -292.12890625 2154.91796875 C-293.55352686 2153.13655585 -295.01871073 2151.38662964 -296.52734375 2149.67578125 C-320.47689398 2122.37887291 -337.98367828 2087.76985835 -351.3125 2054.1875 C-351.88218506 2052.75809082 -351.88218506 2052.75809082 -352.46337891 2051.29980469 C-361.42309942 2028.70384421 -369.85942678 2005.87321478 -375.95703125 1982.32421875 C-376.82075472 1978.98878262 -377.74823275 1975.68751673 -378.76171875 1972.39453125 C-385.373118 1950.78728633 -389.11927693 1928.37398163 -392.97372437 1906.13726807 C-393.28575025 1904.34145382 -393.60226008 1902.5464202 -393.91918945 1900.75146484 C-409.87749941 1809.68435242 -412.67930549 1716.58352412 -416.5625 1624.3984375 C-416.76257251 1619.66143927 -416.96315677 1614.92446296 -417.1640625 1610.1875 C-417.21273783 1609.03699347 -417.26141315 1607.88648693 -417.31156349 1606.70111656 C-417.9280595 1592.19459729 -418.64431801 1577.70024967 -419.52119637 1563.20726967 C-420.41969008 1548.27840741 -420.9048982 1533.34723301 -421.31866455 1518.39862061 C-421.45168586 1513.62037396 -421.59114167 1508.84231252 -421.73179626 1504.06428528 C-421.80519634 1501.55628022 -421.87669138 1499.04821809 -421.9455719 1496.54008484 C-422.10039534 1491.14978623 -422.27505889 1485.76596476 -422.55827332 1480.38095093 C-423.35908873 1464.98439406 -423.47618221 1449.61851424 -423.48046875 1434.203125 C-423.48190005 1432.82561984 -423.48349768 1431.44811483 -423.48525429 1430.07061005 C-423.49446174 1422.81953016 -423.4985974 1415.56846834 -423.49780273 1408.31738281 C-423.49727656 1402.46188565 -423.50417857 1396.60645642 -423.51831055 1390.75097656 C-423.60358345 1354.59912419 -423.13274778 1318.55318954 -421.67296791 1282.42433071 C-421.33794242 1274.08690405 -421.08962138 1265.74994696 -420.88224411 1257.40853691 C-420.34123447 1236.04568442 -419.1517403 1214.711882 -418 1193.375 C-417.88708472 1191.27043771 -417.77419024 1189.1658743 -417.66131592 1187.06130981 C-416.09014896 1157.84968675 -414.35307162 1128.67201071 -411.91650391 1099.51806641 C-411.46290397 1094.06318278 -411.02834919 1088.60704415 -410.60302734 1083.14990234 C-403.28133534 989.22091469 -393.26391152 895.61732216 -380.65826416 802.24581909 C-379.6420177 794.71209755 -378.67586109 787.17376568 -377.74609375 779.62890625 C-376.40443843 768.77699336 -374.92894577 757.94842382 -373.375 747.125 C-373.23376709 746.13846436 -373.09253418 745.15192871 -372.94702148 744.13549805 C-366.49324748 699.14858726 -359.92142352 654.14175642 -352.07591248 609.3744812 C-351.88558189 608.28805832 -351.88558189 608.28805832 -351.69140625 607.1796875 C-351.56963516 606.48497345 -351.44786407 605.7902594 -351.32240295 605.07449341 C-349.81698433 596.42729599 -348.56329928 587.74545636 -347.3125 579.05859375 C-346.61093575 574.19219897 -345.87971169 569.33105783 -345.125 564.47265625 C-345.01700073 563.77723724 -344.90900146 563.08181824 -344.79772949 562.36532593 C-344.56809598 560.88766531 -344.33839832 559.41001466 -344.10864258 557.93237305 C-342.02303654 544.51435899 -339.99431703 531.08854577 -338.01177788 517.65494728 C-337.65382937 515.22969292 -337.29547333 512.80449906 -336.93702698 510.37931824 C-335.48859517 500.57844508 -335.48859517 500.57844508 -334.04855347 490.77633667 C-331.55063747 473.72194174 -328.98757925 456.69351305 -325.9618988 439.72348022 C-324.37568713 430.79855998 -323.1117599 421.85313856 -321.98828125 412.859375 C-321.47563464 409.01017426 -320.68925408 405.28230235 -319.81030273 401.50244141 C-319.09379396 398.17044719 -318.61717447 394.81431089 -318.12231445 391.44335938 C-315.50601584 373.73303031 -311.67839807 356.2846597 -307.87939453 338.79943848 C-307.30045652 336.13201028 -306.72414875 333.4640248 -306.1484375 330.79589844 C-305.1692746 326.26043801 -304.18546236 321.72600977 -303.19784546 317.19238281 C-302.82427779 315.47736671 -302.45138185 313.76220412 -302.07925415 312.046875 C-300.07590157 302.82840263 -297.97321552 293.64217012 -295.69140625 284.48828125 C-295.38859489 283.27251907 -295.38859489 283.27251907 -295.07966614 282.03219604 C-293.45430746 275.58855148 -291.61867313 269.21927181 -289.69140625 262.859375 C-288.31693802 258.25960935 -287.04584816 253.63316698 -285.7722168 249.00463867 C-277.7647283 219.95761033 -277.7647283 219.95761033 -272.35546875 208.54296875 C-271.2421821 206.02869215 -270.29418128 203.47111486 -269.35595703 200.88720703 C-263.7572552 185.47488223 -256.7853002 170.62050402 -249.27441406 156.05371094 C-248.64489891 154.83238763 -248.01909416 153.60914292 -247.39746094 152.38378906 C-235.47222902 128.90639073 -220.73768769 106.92528976 -203.3125 87.1875 C-202.6009375 86.36507813 -201.889375 85.54265625 -201.15625 84.6953125 C-191.14316875 73.29982824 -180.40261239 62.37532204 -168.3125 53.1875 C-167.77222168 52.77081055 -167.23194336 52.35412109 -166.67529297 51.92480469 C-117.78815659 14.34461743 -60.91232524 -0.06305624 0 0 Z " fill="#FEFEFE" transform="translate(2707.3125,1401.8125)"/>
<path d="M0 0 C2.83906268 0.01095591 5.67807831 0.01046412 8.51715851 0.00986195 C11.29001186 0.01013491 14.06283489 0.0156322 16.8356781 0.02286339 C18.76371906 0.02750775 20.69176622 0.029309 22.61981201 0.03102112 C29.03634565 0.065715 35.24031949 0.37944957 41.60357666 1.19561768 C43.88135078 1.32389826 46.15680007 1.40875259 48.43682861 1.48590088 C69.76712891 2.21476491 90.87741654 4.96110828 111.86993408 8.71417236 C114.71157332 9.2146379 117.55702072 9.68575637 120.40435791 10.15264893 C151.0438681 15.24281671 181.37708748 21.93766996 210.98345947 31.37091064 C215.40325407 32.76208341 219.84869108 34.0663139 224.29107666 35.38311768 C242.50548386 40.83522965 242.50548386 40.83522965 251.18560791 44.52764893 C256.29608438 46.67301457 261.44384831 48.6797699 266.63116455 50.63067627 C289.53168271 59.2544208 311.63528803 69.44273738 333.60357666 80.19561768 C335.02065918 80.88373535 335.02065918 80.88373535 336.46636963 81.58575439 C350.83908561 88.57210697 364.78428749 96.17344548 378.60357666 104.19561768 C379.40343994 104.65452393 380.20330322 105.11343018 381.02740479 105.58624268 C409.50720017 121.95670833 436.74201331 140.970136 462.60357666 161.19561768 C463.74260314 162.07620958 464.88193422 162.95640761 466.02154541 163.83624268 C473.83905971 169.89536066 481.39521074 176.20838218 488.86236572 182.69268799 C490.57611421 184.1719134 492.30200944 185.63537678 494.03326416 187.09405518 C500.16578854 192.26936569 506.16240154 197.56303565 512.01373291 203.05499268 C512.70160385 203.70053604 513.38947479 204.34607941 514.09819031 205.01118469 C521.22541415 211.73315254 528.18148443 218.62178945 535.09796143 225.55963135 C537.19307758 227.66018872 539.29359976 229.75523642 541.39459229 231.84991455 C542.75754379 233.21352578 544.12018563 234.5774466 545.48248291 235.94171143 C546.09612198 236.55332626 546.70976105 237.1649411 547.34199524 237.79508972 C551.07399518 241.5470795 554.61722842 245.41924442 558.07319641 249.42712402 C560.15703554 251.83518977 562.31780381 254.16909926 564.47857666 256.50811768 C568.49738259 260.91914941 572.3322299 265.43297125 576.07623291 270.07843018 C577.95405582 272.4079971 579.86381783 274.70819164 581.78717041 277.00030518 C590.50868298 287.42116656 598.66926612 298.16596387 606.60357666 309.19561768 C607.3646875 310.24652588 607.3646875 310.24652588 608.14117432 311.31866455 C627.2511485 337.73891222 643.9549061 365.61551433 659.60357666 394.19561768 C659.91845032 394.76859589 660.23332397 395.3415741 660.55773926 395.93191528 C665.79224579 405.48441261 670.51548045 415.19887482 674.97857666 425.13311768 C675.30028839 425.84561676 675.62200012 426.55811584 675.95346069 427.29220581 C705.60147006 492.97432919 726.45108966 562.64475978 735.36004639 634.24493408 C735.59165403 636.10011712 735.82938334 637.95453289 736.06744385 639.80889893 C743.49222402 698.20604635 742.89692151 757.5405171 730.60357666 815.19561768 C730.42181885 816.06637939 730.24006104 816.93714111 730.05279541 817.83428955 C728.19015524 826.68561621 725.75494934 835.34473693 723.16607666 844.00811768 C722.88965332 844.93946533 722.61322998 845.87081299 722.32843018 846.8303833 C710.29310505 886.09367775 685.64383184 924.64809731 657.86920166 954.71905518 C656.02125147 956.7390559 654.23183199 958.78833249 652.44732666 960.86358643 C641.89528859 972.94964606 630.29720487 984.38114337 617.60357666 994.19561768 C616.40601702 995.18874921 615.21230677 996.18653263 614.02154541 997.18780518 C583.91643453 1022.396279 548.19098749 1041.02580817 511.33721924 1054.21099854 C509.52675623 1054.86310154 507.72169849 1055.53042781 505.92266846 1056.21343994 C498.94401476 1058.84488053 491.90346319 1060.84278974 484.66607666 1062.63311768 C482.85429932 1063.08207397 482.85429932 1063.08207397 481.00592041 1063.5401001 C472.41633382 1065.61914017 463.79876764 1067.42986235 455.10357666 1069.00811768 C454.04533691 1069.20268555 452.98709717 1069.39725342 451.89678955 1069.59771729 C434.26831681 1072.65529215 416.6587373 1073.63544317 398.79107666 1073.63311768 C397.74697632 1073.63451752 396.70287598 1073.63591736 395.62713623 1073.63735962 C314.10569412 1073.54887982 218.45684246 1055.87998537 158.60357666 996.19561768 C155.43292333 992.98450944 152.46643054 989.68375192 149.60357666 986.19561768 C148.82756104 985.25331299 148.05154541 984.3110083 147.25201416 983.34014893 C125.333419 955.38955637 118.48971801 919.61935453 114.91607666 885.19561768 C114.79651611 884.04690186 114.67695557 882.89818604 114.55377197 881.71466064 C112.83362843 863.74788599 112.52958899 845.73531968 112.35748291 827.69952393 C112.34905931 826.81954113 112.34063572 825.93955833 112.33195686 825.03290939 C112.25448962 816.76698558 112.18497284 808.50100646 112.12677002 800.23492432 C111.99489433 781.9730042 111.83605772 763.73515103 110.68560791 745.50421143 C110.56953941 743.65540123 110.56953941 743.65540123 110.4511261 741.76924133 C109.15616792 723.10331098 107.04799927 704.14204777 101.60357666 686.19561768 C101.3945874 685.46165771 101.18559814 684.72769775 100.97027588 683.97149658 C96.14084608 667.13580742 88.46652602 651.76672441 80.60357666 636.19561768 C79.8490403 634.66728276 79.09502197 633.13869182 78.34185791 631.60968018 C71.34139276 617.66934452 61.79554379 604.95693615 51.60357666 593.19561768 C50.77599854 592.22237549 49.94842041 591.2491333 49.09576416 590.24639893 C33.99350944 572.85871431 11.8751971 557.44075694 -11.39642334 554.19561768 C-16.41767625 553.89233765 -21.43024941 553.85444955 -26.45892334 553.88311768 C-27.49795807 553.88684891 -27.49795807 553.88684891 -28.5579834 553.89065552 C-60.36722751 554.06766472 -89.74775849 566.39644611 -116.39642334 583.19561768 C-117.4392749 583.85175049 -118.48212646 584.5078833 -119.55657959 585.18389893 C-135.54159878 595.57523711 -150.54483314 607.54078049 -164.49407959 620.51593018 C-167.09154137 622.91412504 -169.73429428 625.24498173 -172.39642334 627.57061768 C-178.49214152 633.05286901 -183.95520626 639.07468195 -189.39642334 645.19561768 C-189.89432373 645.754104 -190.39222412 646.31259033 -190.9052124 646.88800049 C-209.4863478 667.84171083 -226.67980072 691.64026642 -238.81048584 716.95343018 C-240.47414925 720.35451547 -242.23478409 723.69152011 -244.01507568 727.03253174 C-248.39081683 735.24615914 -252.53959126 743.49907986 -256.38470459 751.97637939 C-257.57503294 754.58740369 -258.78242472 757.19026241 -259.99017334 759.79327393 C-267.3379389 775.66281414 -274.56692322 791.51957151 -280.25140381 808.07110596 C-281.81389144 812.61006358 -283.51649687 817.06285556 -285.33392334 821.50811768 C-291.66953177 837.16564998 -296.74430121 853.21264538 -301.55999756 869.39239502 C-302.36363173 872.08571888 -303.17693186 874.77589803 -303.99407959 877.46514893 C-304.50330135 879.14610604 -305.01242087 880.82709414 -305.52142334 882.50811768 C-305.73871094 883.2222583 -305.95599854 883.93639893 -306.17987061 884.67218018 C-321.83635785 936.6949161 -333.0653502 990.02453611 -341.35708618 1043.67947388 C-342.1159797 1048.55817057 -342.97642108 1053.40713915 -343.89642334 1058.25811768 C-345.37728419 1066.34615848 -346.30022573 1074.48043453 -347.20111084 1082.6506958 C-348.00463801 1089.9114336 -348.90535831 1097.15187584 -349.87957764 1104.3916626 C-356.56821391 1154.4284754 -357.5765551 1204.58853869 -357.58392334 1255.00811768 C-357.58444576 1255.80615311 -357.58496819 1256.60418854 -357.58550644 1257.42640686 C-357.59658779 1275.77583027 -357.4204142 1294.11363456 -356.94720459 1312.45733643 C-356.91825639 1313.63369124 -356.91825639 1313.63369124 -356.88872337 1314.83381081 C-356.69116317 1322.67058145 -356.38101802 1330.41047334 -355.39642334 1338.19561768 C-355.25486014 1340.35445647 -355.13391545 1342.51478084 -355.03704834 1344.67608643 C-354.18928404 1361.62467952 -352.75763205 1378.45184467 -350.89642334 1395.32061768 C-350.7888269 1396.29912689 -350.68123047 1397.27763611 -350.57037354 1398.28579712 C-348.96888502 1412.76868485 -347.2281803 1427.22189385 -344.95892334 1441.61749268 C-344.53171851 1444.33499006 -344.11643186 1447.05328745 -343.70892334 1449.77374268 C-342.50471208 1457.72823148 -341.17060938 1465.55529481 -339.25970459 1473.37530518 C-338.33907529 1477.44940224 -337.56971699 1481.5357966 -336.8102417 1485.64239502 C-332.56048627 1508.54586786 -327.80870464 1531.67130172 -320.22991943 1553.73175049 C-319.26924009 1556.57157942 -318.35778207 1559.42527298 -317.44720459 1562.28155518 C-309.18082899 1587.98905406 -299.03151949 1612.82843978 -287.39642334 1637.19561768 C-287.00309814 1638.03141357 -286.60977295 1638.86720947 -286.20452881 1639.72833252 C-276.22486285 1660.86397487 -264.18091368 1681.31504302 -250.39642334 1700.19561768 C-250.00406494 1700.73670166 -249.61170654 1701.27778564 -249.2074585 1701.83526611 C-240.65338643 1713.58682095 -231.39325554 1724.6507065 -221.39642334 1735.19561768 C-220.87451416 1735.75152588 -220.35260498 1736.30743408 -219.81488037 1736.88018799 C-195.2964602 1762.84259284 -161.12042105 1785.78485283 -124.45501709 1787.31866455 C-81.91832018 1788.42106946 -47.22626143 1773.20119727 -16.43157959 1744.10186768 C-15.41910828 1743.13390422 -14.40740773 1742.16513403 -13.39642334 1741.19561768 C-12.86516846 1740.69159424 -12.33391357 1740.1875708 -11.78656006 1739.66827393 C-4.04026001 1732.28777777 2.86288197 1724.5586046 9.26519775 1715.98712158 C10.60223534 1714.19741312 11.95567649 1712.42102037 13.31060791 1710.64483643 C20.1139967 1701.63622808 26.14931807 1692.21358953 32.09185791 1682.62188721 C33.56995836 1680.24957419 35.06685919 1677.89048524 36.57232666 1675.53546143 C44.20487354 1663.58815571 51.45663768 1651.43856224 58.60357666 1639.19561768 C59.4268042 1637.78651123 59.4268042 1637.78651123 60.2666626 1636.34893799 C63.13676051 1631.434754 66.00351868 1626.51862724 68.86920166 1621.60186768 C70.11397879 1619.46644253 71.35877108 1617.33102623 72.60357666 1615.19561768 C72.93720215 1614.62311279 73.27082764 1614.05060791 73.61456299 1613.46075439 C78.91977385 1604.35790611 84.24570118 1595.26757815 89.60357666 1586.19561768 C90.19606201 1585.19176025 90.78854736 1584.18790283 91.39898682 1583.15362549 C107.65443809 1555.72518881 125.14488902 1528.17850703 146.11529541 1504.08624268 C148.40349961 1501.42804628 150.56688623 1498.70662955 152.72857666 1495.94561768 C163.14044642 1483.20551228 175.22375586 1471.76121346 188.60357666 1462.19561768 C189.198479 1461.76700439 189.79338135 1461.33839111 190.40631104 1460.89678955 C199.66442949 1454.29509191 209.27793039 1448.9336591 219.60357666 1444.19561768 C220.3143335 1443.86320068 221.02509033 1443.53078369 221.75738525 1443.18829346 C271.12132412 1420.31819625 326.85555377 1421.39458705 377.60357666 1439.19561768 C379.12330935 1439.69895314 380.64398358 1440.19946579 382.16607666 1440.69561768 C383.64569679 1441.19427418 385.12482604 1441.69438855 386.60357666 1442.19561768 C387.54330322 1442.50628174 388.48302979 1442.8169458 389.45123291 1443.13702393 C439.2585814 1460.17481775 486.07847622 1488.13915278 527.60357666 1520.19561768 C528.40988525 1520.81485107 528.40988525 1520.81485107 529.23248291 1521.44659424 C541.83905241 1531.14561212 553.8500007 1541.48185255 565.60357666 1552.19561768 C566.51236572 1553.01159424 567.42115479 1553.8275708 568.35748291 1554.66827393 C578.59403098 1563.92342192 588.86944809 1573.45431775 597.76763916 1584.02374268 C599.27873031 1585.81133136 600.81627613 1587.56118597 602.37701416 1589.30499268 C628.28402067 1618.41823231 653.06975101 1654.22667895 663.60357666 1692.19561768 C663.81176025 1692.92748291 664.01994385 1693.65934814 664.23443604 1694.41339111 C667.92114146 1707.52227769 670.12292477 1720.66883249 671.60357666 1734.19561768 C671.74823364 1735.42852539 671.74823364 1735.42852539 671.89581299 1736.68634033 C676.30486949 1778.23276585 670.72781513 1822.54135411 657.32574463 1862.03009033 C656.535163 1864.40076615 655.80186774 1866.78475844 655.07623291 1869.17608643 C654.56472014 1870.84932649 654.05300767 1872.52250552 653.54107666 1874.19561768 C653.31984131 1874.92562988 653.09860596 1875.65564209 652.8706665 1876.40777588 C651.18720089 1881.7840635 649.10450506 1886.93951535 646.90460205 1892.12432861 C645.67581813 1895.02507956 644.48620799 1897.9386124 643.30670166 1900.85968018 C632.58022976 1927.08875688 619.86060845 1952.42299501 605.14996338 1976.64532471 C603.71261296 1979.01579557 602.29735019 1981.39784212 600.88873291 1983.78546143 C583.37672847 2013.24343591 562.77996517 2040.88520823 541.09185791 2067.37530518 C539.78948288 2068.96823632 538.49291634 2070.56591288 537.19732666 2072.16436768 C528.2780778 2083.15184815 519.05649813 2093.8276121 509.40435791 2104.17608643 C506.92817295 2106.8332717 504.51101988 2109.5383575 502.10357666 2112.25811768 C498.19299845 2116.63085513 494.07657012 2120.75803129 489.90216064 2124.87554932 C487.19610757 2127.55740648 484.60949643 2130.27321487 482.16607666 2133.19561768 C478.64582097 2137.3325605 474.66781519 2140.90628915 470.65386963 2144.55181885 C466.92755432 2147.94418706 463.33235769 2151.42250907 459.79107666 2155.00811768 C456.20455705 2158.63086476 452.56219145 2162.0867132 448.68560791 2165.39483643 C446.17204088 2167.5688597 443.73581437 2169.81952256 441.29107666 2172.07061768 C436.80209609 2176.16441976 432.1911419 2180.05031435 427.46295166 2183.86358643 C424.96560241 2185.90035897 422.51145004 2187.97876467 420.06866455 2190.0803833 C412.52200465 2196.55987388 404.67710732 2202.60419125 396.73248291 2208.58575439 C394.7008005 2210.12209772 392.68193674 2211.67375524 390.66607666 2213.23077393 C380.35295629 2221.15233295 369.59027926 2228.24734927 358.60357666 2235.19561768 C357.77760986 2235.72268311 356.95164307 2236.24974854 356.10064697 2236.79278564 C336.30868846 2249.40637395 315.80685959 2261.11038855 294.60357666 2271.19561768 C293.92182373 2271.52078369 293.2400708 2271.84594971 292.53765869 2272.18096924 C288.24818353 2274.22190561 283.94755195 2276.2379954 279.64117432 2278.24298096 C277.71195236 2279.14494885 275.78785606 2280.05689678 273.86529541 2280.97296143 C258.70908616 2288.17200838 243.21134868 2294.44245191 227.50592041 2300.33624268 C224.14365051 2301.60057702 220.80280574 2302.90835184 217.47076416 2304.25030518 C204.21653953 2309.57832536 190.69806009 2313.7313424 176.93951416 2317.54473877 C173.92500161 2318.38469388 170.92089507 2319.25919153 167.91607666 2320.13311768 C166.18637028 2320.62326867 164.4565731 2321.11311196 162.72564697 2321.59893799 C161.15391473 2322.04087467 159.58308732 2322.4860321 158.01275635 2322.93292236 C144.53108092 2326.75158982 130.99546384 2330.10417081 117.29107666 2333.00811768 C116.60210297 2333.15496002 115.91312927 2333.30180237 115.20327759 2333.45309448 C107.19924171 2335.15082604 99.19743465 2336.64224006 91.09112549 2337.77252197 C88.61232247 2338.07003362 88.61232247 2338.07003362 86.60357666 2339.19561768 C83.70912641 2339.67013619 80.82107477 2340.10081185 77.91607666 2340.50030518 C77.03538513 2340.6240451 76.1546936 2340.74778503 75.24731445 2340.87527466 C72.36668119 2341.27828557 69.48526653 2341.675236 66.60357666 2342.07061768 C65.61941772 2342.20600952 64.63525879 2342.34140137 63.62127686 2342.480896 C57.7854408 2343.28221976 51.94831612 2344.07355437 46.11016846 2344.85784912 C43.95715639 2345.14797206 41.80472131 2345.44237119 39.65240479 2345.73760986 C-33.52392232 2355.67699902 -114.17257292 2354.11677946 -186.63641357 2339.92803955 C-190.17314401 2339.23911083 -193.71485564 2338.60039779 -197.26361084 2337.97686768 C-241.39460241 2330.0165505 -284.90866182 2317.20663322 -326.39642334 2300.19561768 C-327.4805249 2299.75314697 -328.56462646 2299.31067627 -329.68157959 2298.85479736 C-356.37448259 2287.8822512 -382.6039875 2275.56436217 -407.48431396 2260.90997314 C-410.67089152 2259.03403857 -413.86949137 2257.17952105 -417.06829834 2255.32452393 C-431.18349602 2247.10756388 -444.95234197 2238.47455985 -458.39642334 2229.19561768 C-459.48842041 2228.4468335 -459.48842041 2228.4468335 -460.60247803 2227.68292236 C-476.35833977 2216.85392798 -491.51191522 2205.18734176 -506.39642334 2193.19561768 C-507.33872803 2192.43893799 -508.28103271 2191.6822583 -509.25189209 2190.90264893 C-521.16199227 2181.2269394 -532.64298862 2171.09325322 -543.85638428 2160.62237549 C-545.2976322 2159.287142 -546.75658735 2157.97109329 -548.21673584 2156.65655518 C-556.14074082 2149.49325467 -563.71161276 2141.98891318 -571.27142334 2134.44561768 C-571.81762329 2133.90200592 -572.36382324 2133.35839417 -572.92657471 2132.79830933 C-578.4110664 2127.33431289 -583.834023 2121.86046462 -588.86663818 2115.97052002 C-591.40842866 2113.02145893 -594.10029749 2110.21454379 -596.77142334 2107.38311768 C-601.4983871 2102.33650823 -605.97151477 2097.16227619 -610.29486084 2091.76202393 C-612.37643761 2089.22002404 -614.54680714 2086.80032432 -616.77142334 2084.38311768 C-621.29175907 2079.41623231 -625.40582827 2074.19061977 -629.51751709 2068.88702393 C-631.42029345 2066.43448459 -633.34843816 2064.00652122 -635.30657959 2061.59796143 C-642.48144797 2052.77036812 -649.23101911 2043.69553749 -655.81585693 2034.42022705 C-657.31175679 2032.31478382 -658.81595483 2030.21553802 -660.32220459 2028.11749268 C-676.23586015 2005.86425075 -691.18399702 1982.89430728 -705.11712646 1959.35089111 C-706.61430791 1956.82854039 -708.12282632 1954.31309401 -709.63079834 1951.79718018 C-714.75524983 1943.22027508 -719.83416319 1934.71217893 -724.15032959 1925.69561768 C-725.40249227 1923.18344176 -726.79264772 1920.83048657 -728.27142334 1918.44561768 C-731.9584842 1912.41741534 -735.01316578 1906.09596352 -738.12738037 1899.76153564 C-739.57814596 1896.82818699 -741.04675237 1893.90414577 -742.51751709 1890.98077393 C-748.33418699 1879.41448752 -754.08855663 1867.83343062 -759.5199585 1856.08087158 C-760.39878292 1854.19054228 -761.29187282 1852.30760342 -762.18939209 1850.42608643 C-765.9117309 1842.59803142 -769.31936107 1834.67943312 -772.58001709 1826.64874268 C-774.47645164 1821.97964002 -776.43376836 1817.33719068 -778.39642334 1812.69561768 C-779.40455048 1810.302983 -780.41183753 1807.90999632 -781.41888428 1805.51690674 C-782.05650665 1804.00279247 -782.69513149 1802.48909985 -783.3348999 1800.97589111 C-787.21607571 1791.7814479 -790.79019028 1782.53596103 -794.03704834 1773.09796143 C-795.20566643 1769.70683644 -796.44935428 1766.34817108 -797.7177124 1762.9932251 C-798.54698587 1760.79684361 -799.34894647 1758.59122581 -800.14642334 1756.38311768 C-801.40050257 1752.91651844 -802.67021886 1749.45658825 -803.96282959 1746.00421143 C-809.97428486 1729.90803057 -815.44792053 1713.65042257 -820.39642334 1697.19561768 C-820.82802717 1695.77085856 -821.25975742 1694.34613774 -821.69158936 1692.92144775 C-825.35645274 1680.80065019 -828.87184328 1668.64337168 -832.27142334 1656.44561768 C-832.65977356 1655.05281082 -832.65977356 1655.05281082 -833.05596924 1653.63186646 C-843.92430839 1614.57621903 -852.94306883 1575.20051546 -860.24923706 1535.32868958 C-861.0453262 1531.00662244 -861.91016476 1526.70449269 -862.81048584 1522.40264893 C-865.00811813 1511.50818778 -866.6408474 1500.51325638 -868.35809326 1489.53497314 C-868.95764116 1485.70381091 -869.56239973 1481.87349822 -870.16790771 1478.04327393 C-877.1027182 1434.0388013 -881.97605444 1389.6591341 -885.1763916 1345.22723389 C-885.39594594 1342.20219527 -885.62469131 1339.17794285 -885.85394287 1336.15362549 C-888.34029965 1302.65506177 -888.6858307 1269.19477874 -888.70649719 1235.61870193 C-888.70887923 1232.31921034 -888.71419159 1229.01973286 -888.7197876 1225.72024536 C-888.75566327 1196.82602452 -888.09494165 1168.0412159 -886.39642334 1139.19561768 C-886.28314194 1137.26629898 -886.28314194 1137.26629898 -886.16757202 1135.29800415 C-885.72733118 1128.02921146 -885.21314915 1120.76806944 -884.64642334 1113.50811768 C-884.56338959 1112.43029022 -884.48035583 1111.35246277 -884.39480591 1110.24197388 C-878.52436455 1034.68836603 -867.94501121 959.34869964 -851.8482666 885.27587891 C-851.37423401 883.09345926 -850.90305699 880.9104343 -850.43206787 878.72735596 C-845.25259886 854.76841686 -839.79187991 830.87664009 -833.09661865 807.28839111 C-831.78334038 802.65392976 -830.59230987 798.00202212 -829.45892334 793.32061768 C-827.33498053 784.59919804 -824.69426802 776.04255115 -822.07952881 767.45831299 C-821.17514182 764.46265229 -820.31228201 761.45617917 -819.45892334 758.44561768 C-811.73792167 731.27913031 -803.24495781 704.45705914 -794.05218506 677.75567627 C-793.78544983 676.98083893 -793.5187146 676.20600159 -793.24389648 675.40768433 C-792.71555764 673.87336453 -792.18687478 672.33916314 -791.65783691 670.80508423 C-790.20261473 666.57604185 -788.77796005 662.33856078 -787.38217163 658.08955383 C-785.57340114 652.58709236 -783.65530238 647.18311249 -781.45062256 641.82794189 C-778.87169196 635.38837967 -776.59752062 628.82225486 -774.25360107 622.29351807 C-771.59665188 614.90223424 -768.79594233 607.65077251 -765.4664917 600.53179932 C-764.09602349 597.53978237 -762.9863784 594.48728024 -761.89642334 591.38311768 C-745.06998878 545.20583024 -722.26691045 500.06475705 -698.39642334 457.19561768 C-697.62709473 455.80971436 -697.62709473 455.80971436 -696.84222412 454.39581299 C-664.81386714 396.80665133 -628.0616612 341.74498475 -585.92718506 291.04669189 C-584.56356624 289.39773529 -583.21218766 287.74019588 -581.86907959 286.07452393 C-577.33310997 280.45438582 -572.61695337 275.0590167 -567.72845459 269.74249268 C-565.77237082 267.60620019 -563.85454637 265.4478111 -561.95892334 263.25811768 C-558.14196765 258.86365569 -554.18975163 254.59545536 -550.24017334 250.32061768 C-548.17157452 248.06924962 -546.16382417 245.77331191 -544.16766357 243.45758057 C-540.66016159 239.44474155 -536.98662995 235.64062807 -533.21282959 231.87921143 C-532.55363022 231.21905533 -531.89443085 230.55889923 -531.21525574 229.8787384 C-529.83245499 228.49526262 -528.44841258 227.11302684 -527.06317139 225.73199463 C-524.96411991 223.63830098 -522.87046394 221.53931893 -520.77728271 219.4397583 C-519.42278548 218.08592197 -518.06797803 216.73239592 -516.71282959 215.37921143 C-516.0979921 214.7623497 -515.4831546 214.14548798 -514.84968567 213.50993347 C-511.10750025 209.78749207 -507.25032759 206.25096769 -503.24816895 202.80924988 C-500.10719438 200.07216889 -497.10733062 197.18601976 -494.08392334 194.32061768 C-488.96139864 189.50303535 -483.74731803 184.90794662 -478.24798584 180.51983643 C-475.4918295 178.27338023 -472.82141265 175.9547833 -470.15472412 173.60406494 C-462.22497061 166.62107095 -453.98711891 160.15931056 -445.54046631 153.81622314 C-443.42895525 152.22020738 -441.33414979 150.60473823 -439.24407959 148.98077393 C-407.27203928 124.16968754 -372.88794416 102.59266273 -337.14788818 83.65509033 C-334.58631422 82.2963424 -332.03155414 80.92567231 -329.47845459 79.55108643 C-324.81018915 77.04827996 -320.11454154 74.60305545 -315.39642334 72.19561768 C-314.58608643 71.78166748 -313.77574951 71.36771729 -312.94085693 70.94122314 C-253.41523262 40.8398712 -186.02934746 18.97656573 -119.90423584 9.87139893 C-116.83791656 9.4394667 -113.83140724 8.8799476 -110.80438232 8.22955322 C-105.34733882 7.1281635 -99.89904432 6.509999 -94.36126709 5.97686768 C-93.32490616 5.87346069 -92.28854523 5.77005371 -91.22077942 5.66351318 C-89.03175698 5.44611382 -86.84249589 5.2311055 -84.65301514 5.01837158 C-81.39438276 4.70149685 -78.13658617 4.37698415 -74.87884521 4.05108643 C-69.4529118 3.5119378 -64.0250504 2.99682303 -58.59558105 2.49459839 C-56.51115561 2.29979617 -54.42717573 2.10014635 -52.34375 1.89492798 C-34.88406394 0.18199937 -17.52315896 -0.08552879 0 0 Z " fill="#FEFEFE" transform="translate(1352.3964233398438,1388.8043823242188)"/>
</svg>
